<?xml version="1.0" standalone="no"?>
<!DOCTYPE svg PUBLIC "-//W3C//DTD SVG 20010904//EN"
 "http://www.w3.org/TR/2001/REC-SVG-20010904/DTD/svg10.dtd">
<svg version="1.0" xmlns="http://www.w3.org/2000/svg"
 width="75.000000pt" height="75.000000pt" viewBox="0 0 75.000000 75.000000"
 preserveAspectRatio="xMidYMid meet">
<metadata>
Created by potrace 1.11, written by Peter Selinger 2001-2013
</metadata>
<g transform="translate(0.000000,75.000000) scale(0.100000,-0.100000)"
fill="#000000" stroke="none">
<path d="M416 733 c-4 -5 -12 -9 -17 -9 -5 -1 -11 -3 -14 -4 -3 -1 -8 -3 -12
-4 -5 -1 -21 -7 -38 -13 -16 -7 -61 -24 -100 -39 -38 -15 -83 -40 -99 -55 -15
-16 -26 -29 -23 -29 3 0 -10 -35 -29 -77 -19 -43 -39 -89 -46 -103 -6 -14 -17
-37 -24 -52 -20 -37 -18 -74 4 -75 16 -1 94 10 159 22 16 3 52 10 81 15 29 5
65 18 81 29 26 18 56 74 67 124 2 9 6 26 8 37 3 11 7 24 10 28 3 5 7 19 10 33
3 13 14 56 25 94 10 39 17 73 14 78 -2 4 -14 7 -27 7 -12 0 -26 -3 -30 -7z
m17 -39 c7 -8 -7 -36 -29 -58 -22 -23 -54 -21 -54 4 0 35 61 75 83 54z m-226
-89 c0 -8 -4 -15 -9 -15 -5 0 -7 -4 -4 -9 3 -5 -7 -14 -24 -19 -40 -14 -49 2
-19 34 25 27 56 32 56 9z m61 -77 c4 -20 -28 -56 -53 -60 -30 -5 -30 28 0 58
27 27 48 28 53 2z m88 -102 c3 -19 -36 -63 -63 -71 -50 -14 -32 75 20 94 23 9
39 1 43 -23z m-243 -38 c11 -32 -37 -83 -68 -72 -21 8 -19 18 11 53 27 32 49
40 57 19z"/>
<path d="M505 710 c-8 -13 -25 -67 -31 -100 -2 -14 -7 -32 -11 -40 -3 -8 -7
-19 -8 -25 -2 -5 -10 -37 -20 -70 -21 -77 -22 -175 -2 -175 6 0 8 -3 4 -6 -3
-3 24 -34 61 -67 36 -34 82 -78 102 -98 19 -19 43 -38 53 -42 17 -6 21 2 32
59 2 10 4 19 5 19 2 0 10 58 12 97 2 21 5 38 8 38 3 0 6 17 7 38 1 20 4 52 6
70 3 18 1 35 -4 37 -4 3 -6 12 -2 20 3 8 0 15 -6 15 -6 0 -11 5 -11 11 0 6
-13 28 -30 49 -16 21 -30 43 -30 49 0 6 -3 11 -8 11 -4 0 -27 27 -51 60 -42
58 -63 71 -76 50z m52 -62 c20 -42 22 -56 9 -74 -12 -16 -14 -16 -30 9 -22 32
-26 58 -13 75 14 17 22 15 34 -10z m53 -217 c16 -32 13 -80 -6 -77 -22 3 -42
43 -36 72 5 29 27 31 42 5z m50 -210 c15 -29 12 -71 -6 -78 -20 -8 -34 13 -34
53 0 47 21 60 40 25z"/>
<path d="M297 294 c-1 -2 -21 -5 -42 -8 -22 -2 -40 -5 -40 -6 0 -3 -68 -14
-150 -26 -74 -11 -59 -32 93 -134 l127 -85 157 1 c218 1 218 1 86 126 -56 54
-117 105 -135 113 -30 14 -89 26 -96 19z m38 -138 c44 -19 45 -36 2 -36 -34 0
-57 15 -57 37 0 17 13 16 55 -1z"/>
</g>
</svg>
